<svg xmlns="http://www.w3.org/2000/svg" xmlns:xlink="http://www.w3.org/1999/xlink" style="margin: auto; display: block;" width="476px" height="476px" viewBox="0 0 100 100" preserveAspectRatio="xMidYMid">
<defs>
  <path id="path" d="M50 15A18 35 0 0 1 50 85A18 35 0 0 1 50 15" fill="none"></path>
  <path id="patha" d="M0 0A18 35 0 0 1 0 70A18 35 0 0 1 0 0" fill="none"></path>
</defs><g transform="rotate(0 50 50)">
<use xlink:href="#path" stroke="#111618" stroke-width="2"></use>
</g><g transform="rotate(60 50 50)">
<use xlink:href="#path" stroke="#111618" stroke-width="2"></use>
</g><g transform="rotate(120 50 50)">
<use xlink:href="#path" stroke="#111618" stroke-width="2"></use>
</g><g transform="rotate(0 50 50)">
<circle cx="50" cy="15" r="5" fill="#89b1fd">
  <animateMotion dur="2s" repeatCount="indefinite" begin="0s">
    <mpath xlink:href="#patha"></mpath>
  </animateMotion>
</circle>
</g><g transform="rotate(60 50 50)">
<circle cx="50" cy="15" r="5" fill="#1dc7a1">
  <animateMotion dur="2s" repeatCount="indefinite" begin="-0.16666666666666666s">
    <mpath xlink:href="#patha"></mpath>
  </animateMotion>
</circle>
</g><g transform="rotate(120 50 50)">
<circle cx="50" cy="15" r="5" fill="#f8ec70">
  <animateMotion dur="2s" repeatCount="indefinite" begin="-0.3333333333333333s">
    <mpath xlink:href="#patha"></mpath>
  </animateMotion>
</circle>
</g>
</svg>